<?xml version="1.0" encoding="UTF-8"?>
<svg version="1.1" xmlns="http://www.w3.org/2000/svg" width="500" height="500">
<path d="M0 0 C-0.20496094 0.64066406 -0.40992188 1.28132813 -0.62109375 1.94140625 C-3.724896 11.90624505 -4.44753215 18.95837857 -1 29 C3.39079977 37.17211175 9.80795164 44.09669308 16.53125 50.40625 C18 52 18 52 18 54 C18.66 54 19.32 54 20 54 C26.74398141 61.65757495 31.82148458 71.3988689 31.3359375 81.80078125 C30.84757444 84.99785572 29.892872 87.93629599 28.75390625 90.95703125 C28.01721505 92.95334988 27.47945713 94.928559 27 97 C28.08410156 96.95359375 29.16820312 96.9071875 30.28515625 96.859375 C49.80537025 96.30661642 69.99603511 98.600355 88.9375 103.4375 C89.65687744 103.61821045 90.37625488 103.7989209 91.11743164 103.98510742 C97.13937491 105.68223336 102.93411044 108.46761925 106.9375 113.375 C109.21693165 119.00653701 109.1155823 124.93919989 109.0625 130.9375 C109.05798828 131.62134766 109.05347656 132.30519531 109.04882812 133.00976562 C109.0371956 134.67321604 109.01926694 136.3366205 109 138 C109.93199219 137.95359375 110.86398437 137.9071875 111.82421875 137.859375 C123.23963053 137.53618842 134.12612408 138.64809812 143.2265625 146.30859375 C150.29967719 153.05453793 155.89733249 159.92643476 156.56640625 170.05078125 C156.5932545 171.80448248 156.5912856 173.5588295 156.5625 175.3125 C156.55150269 176.69127319 156.55150269 176.69127319 156.5402832 178.09790039 C156.32643004 185.56170482 154.67804691 191.46489879 151 198 C150.39150162 199.24789706 149.78640961 200.4974727 149.1875 201.75 C148.795625 202.4925 148.40375 203.235 148 204 C147.34 204 146.68 204 146 204 C145.773125 204.556875 145.54625 205.11375 145.3125 205.6875 C139.18118122 216.49029975 125.51072624 223.37124582 114.25 227.3125 C106.54754458 228.94186557 93.26870448 231.63435224 86 228 C85.7525 228.69480469 85.505 229.38960937 85.25 230.10546875 C83.80988144 233.44024329 82.00924962 236.28754515 80 239.3125 C79.29875 240.38113281 78.5975 241.44976562 77.875 242.55078125 C77.25625 243.35902344 76.6375 244.16726563 76 245 C75.34 245 74.68 245 74 245 C73.64421875 245.83917969 73.64421875 245.83917969 73.28125 246.6953125 C67.97847483 256.23384101 57.2140759 263.58056911 47 267 C39.62502306 268.22678639 32.2860408 268.16159233 24.82421875 268.16796875 C23.44952867 268.17118981 22.07483893 268.17455449 20.70014954 268.17805481 C17.82816779 268.18401577 14.956216 268.18589785 12.08422852 268.18530273 C8.43323449 268.1852013 4.78243572 268.1988483 1.13148785 268.21607494 C-1.70581415 268.22728141 -4.54307023 268.22921931 -7.38039207 268.22869301 C-9.37147341 268.2304216 -11.36254042 268.24120541 -13.35359192 268.25224304 C-31.17990828 268.20782175 -41.15441489 264.32906683 -54 252 C-54.55171875 251.48824219 -55.1034375 250.97648438 -55.671875 250.44921875 C-58.06417004 248.17653847 -59.75012604 246.06787245 -61 243 C-61.66 243 -62.32 243 -63 243 C-67.74742123 238.13818308 -70.64919953 232.0034934 -73.55859375 225.94921875 C-74.82559771 223.35683937 -76.18045485 220.87092664 -77.625 218.375 C-85.44993161 204.32002729 -88.60740893 188.28296973 -91.25 172.5625 C-91.41306641 171.59296387 -91.57613281 170.62342773 -91.74414062 169.62451172 C-93.63265339 157.81327071 -94.18134212 146.13994561 -94.1875 134.1875 C-94.19974609 132.91712891 -94.21199219 131.64675781 -94.22460938 130.33789062 C-94.24803364 115.41663616 -94.24803364 115.41663616 -89.5 110.3125 C-70.65770342 96.43109793 -38.49552252 96.48153725 -16 97 C-16 98.65 -16 100.3 -16 102 C-14.45170891 94.88553844 -13.31917973 87.8696882 -17.375 81.4375 C-19.96940749 77.97418168 -22.94442782 75.0547307 -26.0625 72.0625 C-32.16248274 66.1097265 -36.22135001 60.35744097 -36.375 51.625 C-36.24765259 48.61764197 -35.80736122 45.89855915 -35 43 C-34.34 43 -33.68 43 -33 43 C-32.9175 42.236875 -32.835 41.47375 -32.75 40.6875 C-31.84332371 37.43857664 -30.71144236 36.84920369 -28 35 C-28.05800781 35.99 -28.11601562 36.98 -28.17578125 38 C-28.72459953 47.4853428 -28.72459953 47.4853428 -24.9609375 55.91015625 C-21.65427114 59.4341931 -18.24809754 62.86553182 -14.72192383 66.17041016 C-10.06356747 70.60518182 -6.47845778 74.76758446 -5.50390625 81.3515625 C-5.53291016 82.97191406 -5.53291016 82.97191406 -5.5625 84.625 C-5.56378906 85.71039063 -5.56507813 86.79578125 -5.56640625 87.9140625 C-6 91 -6 91 -9 96 C-1.41 96 6.18 96 14 96 C14 97.98 14 99.96 14 102 C16.65486546 93.03982907 17.2367924 85.24146181 13.4140625 76.5234375 C11.29220209 72.73691313 8.63482499 69.50525008 5.8046875 66.2265625 C4.1666563 64.20561492 3.04862382 62.36751151 2 60 C1.34 60 0.68 60 0 60 C0 59.34 0 58.68 0 58 C-0.66 58 -1.32 58 -2 58 C-2 57.34 -2 56.68 -2 56 C-2.66 56 -3.32 56 -4 56 C-12.62317984 45.17983167 -16.23643275 35.80683235 -15 22 C-13.80904708 15.60855265 -7.65128461 0 0 0 Z M12 103 C13 106 13 106 13 106 Z M21 103 C21.33 103.66 21.66 104.32 22 105 C22.33 104.34 22.66 103.68 23 103 C22.34 103 21.68 103 21 103 Z M18 107 C16.02 108.65 14.04 110.3 12 112 C11.01 111.505 11.01 111.505 10 111 C10 110.01 10 109.02 10 108 C-12.29325177 108.54671916 -34.59606407 109.13891573 -56.6875 112.4375 C-57.44772461 112.54755371 -58.20794922 112.65760742 -58.99121094 112.77099609 C-63.45708526 113.49972433 -67.1148667 114.66653284 -71 117 C-71.33 117.66 -71.66 118.32 -72 119 C-65.69590355 122.56835648 -60.15412504 124.0535067 -53 125 C-51.70191406 125.17402344 -50.40382813 125.34804687 -49.06640625 125.52734375 C-11.05087564 130.31943621 52.16866847 137.71923356 87 119 C86.67 118.01 86.34 117.02 86 116 C65.91396629 108.20800416 40.24222732 108.47405765 19 109 C18.505 108.01 18.505 108.01 18 107 Z M107 161 C106.85304688 162.20011719 106.70609375 163.40023437 106.5546875 164.63671875 C104.95578102 176.79604533 102.17325821 188.22207345 98.59667969 199.94091797 C97.92102198 202.27254526 97.4030635 204.60619602 97 207 C108.72713201 205.91415444 118.46439684 202.75574979 126.85546875 194.08203125 C132.47507397 187.13037146 134.59992828 179.84894218 134 171 C133.58268982 168.64470719 133.58268982 168.64470719 133 167 C132.34 167 131.68 167 131 167 C131 166.34 131 165.68 131 165 C130.34 165 129.68 165 129 165 C129 164.34 129 163.68 129 163 C121.44788346 160.00057783 114.928642 158.93642334 107 161 Z " fill="#2CA88F" transform="translate(227,108)"/>
<path d="M0 0 C1.26908203 -0.02900391 2.53816406 -0.05800781 3.84570312 -0.08789062 C14.46937054 -0.15875141 23.7050515 1.75278541 32.8125 7.4375 C33.63234375 7.93507813 34.4521875 8.43265625 35.296875 8.9453125 C36.17085937 9.62207031 36.17085937 9.62207031 37.0625 10.3125 C37.0625 10.9725 37.0625 11.6325 37.0625 12.3125 C37.7225 12.3125 38.3825 12.3125 39.0625 12.3125 C39.0625 12.9725 39.0625 13.6325 39.0625 14.3125 C39.7225 14.3125 40.3825 14.3125 41.0625 14.3125 C41.87552325 15.77054169 42.68790131 17.22894315 43.5 18.6875 C43.95246094 19.49960938 44.40492188 20.31171875 44.87109375 21.1484375 C47.78637317 26.44373192 47.597245 31.32486229 47.0625 37.3125 C46.17084283 40.34413438 44.85891178 42.72454429 43.0625 45.3125 C42.65 45.91707031 42.2375 46.52164063 41.8125 47.14453125 C35.40136946 55.50449976 25.16973203 60.15868363 15.0625 62.3125 C6.54254264 63.42116799 -1.97573423 63.59336437 -10.51538086 62.7109375 C-16.30748771 62.11411218 -20.19624808 61.76338007 -25.125 65.125 C-25.75792969 65.66769531 -26.39085937 66.21039063 -27.04296875 66.76953125 C-30.58268279 69.65239114 -33.39698627 70.3125 -37.9375 70.3125 C-37.64101563 69.61769531 -37.34453125 68.92289062 -37.0390625 68.20703125 C-35.88171163 65.16590716 -35.07684996 62.16162937 -34.3125 59 C-34.05210937 57.93136719 -33.79171875 56.86273438 -33.5234375 55.76171875 C-33.23339844 54.54935547 -33.23339844 54.54935547 -32.9375 53.3125 C-34.5875 52.6525 -36.2375 51.9925 -37.9375 51.3125 C-37.9375 50.6525 -37.9375 49.9925 -37.9375 49.3125 C-38.5975 49.3125 -39.2575 49.3125 -39.9375 49.3125 C-39.9375 48.6525 -39.9375 47.9925 -39.9375 47.3125 C-40.5975 47.3125 -41.2575 47.3125 -41.9375 47.3125 C-46.42617412 39.46253968 -47.85770116 33.2882265 -45.6171875 24.43359375 C-44.6935199 21.55111384 -43.42223089 18.94452293 -41.9375 16.3125 C-41.2775 16.3125 -40.6175 16.3125 -39.9375 16.3125 C-39.54498047 15.41337891 -39.54498047 15.41337891 -39.14453125 14.49609375 C-32.10873937 1.76791362 -12.71560384 0.09428278 0 0 Z " fill="#3BC7AB" transform="translate(311.9375,118.6875)"/>
<path d="M0 0 C-0.20496094 0.64066406 -0.40992188 1.28132813 -0.62109375 1.94140625 C-3.724896 11.90624505 -4.44753215 18.95837857 -1 29 C3.39079977 37.17211175 9.80795164 44.09669308 16.53125 50.40625 C18 52 18 52 18 54 C18.66 54 19.32 54 20 54 C26.74398141 61.65757495 31.82148458 71.3988689 31.3359375 81.80078125 C30.84757444 84.99785572 29.892872 87.93629599 28.75390625 90.95703125 C28.01664835 92.95488556 27.50015273 94.93225266 27 97 C27.56920166 96.99476318 28.13840332 96.98952637 28.72485352 96.98413086 C31.33739083 96.96317113 33.94991037 96.95027996 36.5625 96.9375 C37.90538086 96.92493164 37.90538086 96.92493164 39.27539062 96.91210938 C44.29997943 96.89370429 49.04817291 97.13733602 54 98 C54 98.33 54 98.66 54 99 C42.12 99.495 42.12 99.495 30 100 C29.30117869 102.98031281 29.30117869 102.98031281 29 106 C29.69867188 106.06058594 30.39734375 106.12117188 31.1171875 106.18359375 C32.48230469 106.30927734 32.48230469 106.30927734 33.875 106.4375 C35.23238281 106.55931641 35.23238281 106.55931641 36.6171875 106.68359375 C39 107 39 107 41 108 C43.24950675 108.04711009 45.50030985 108.03733926 47.75 108 C54.2286309 107.93065083 60.61361568 108.24472933 67.07421875 108.78125 C70.87410811 109.06535388 74.48279515 109.00229398 78.25 108.5 C79.4875 108.335 80.725 108.17 82 108 C82.66 109.65 83.32 111.3 84 113 C84.66 113 85.32 113 86 113 C86.99 114.485 86.99 114.485 88 116 C90.56282742 116.72965366 90.56282742 116.72965366 93 117 C92.8125 119.375 92.8125 119.375 92 122 C87.66027069 124.9835639 82.90782494 123.79123975 78 123 C80.66559313 121.22293791 83.0280615 120.12451727 86 119 C86 118.01 86 117.02 86 116 C85.18523193 115.86505127 84.37046387 115.73010254 83.53100586 115.59106445 C81.71289178 115.28672551 79.89487875 114.98158044 78.07913208 114.66342163 C65.0622386 112.38542158 52.11807711 111.15881119 38.9375 110.3125 C37.01752644 110.18240112 35.09760405 110.05154492 33.17773438 109.91992188 C23.2479725 108.34843919 23.2479725 108.34843919 14.5625 111.0625 C13.716875 111.701875 12.87125 112.34125 12 113 C10.515 112.505 10.515 112.505 9 112 C9.495 110.515 9.495 110.515 10 109 C-12.29325177 109.54671916 -34.59606407 110.13891573 -56.6875 113.4375 C-57.44772461 113.54755371 -58.20794922 113.65760742 -58.99121094 113.77099609 C-63.46322653 114.50072645 -67.0589577 115.77191467 -71 118 C-70.21625 118.45375 -69.4325 118.9075 -68.625 119.375 C-66 121 -66 121 -64 123 C-71.42608696 123.48695652 -71.42608696 123.48695652 -74.0625 121.25 C-75 119 -75 119 -74.8125 116.875 C-74 115 -74 115 -72 113 C-71.01 113 -70.02 113 -69 113 C-69.33 111.68 -69.66 110.36 -70 109 C-76.37259801 107.80062214 -80.23826317 107.93524637 -86 111 C-86.66 110.34 -87.32 109.68 -88 109 C-67.71050998 97.16446416 -38.91114599 96.47195822 -16 97 C-16 98.65 -16 100.3 -16 102 C-14.45170891 94.88553844 -13.31917973 87.8696882 -17.375 81.4375 C-19.96940749 77.97418168 -22.94442782 75.0547307 -26.0625 72.0625 C-32.16248274 66.1097265 -36.22135001 60.35744097 -36.375 51.625 C-36.24765259 48.61764197 -35.80736122 45.89855915 -35 43 C-34.34 43 -33.68 43 -33 43 C-32.9175 42.236875 -32.835 41.47375 -32.75 40.6875 C-31.84332371 37.43857664 -30.71144236 36.84920369 -28 35 C-28.08701172 36.485 -28.08701172 36.485 -28.17578125 38 C-28.72459953 47.4853428 -28.72459953 47.4853428 -24.9609375 55.91015625 C-21.65427114 59.4341931 -18.24809754 62.86553182 -14.72192383 66.17041016 C-10.06356747 70.60518182 -6.47845778 74.76758446 -5.50390625 81.3515625 C-5.53291016 82.97191406 -5.53291016 82.97191406 -5.5625 84.625 C-5.56378906 85.71039063 -5.56507813 86.79578125 -5.56640625 87.9140625 C-6 91 -6 91 -9 96 C-1.41 96 6.18 96 14 96 C14 97.98 14 99.96 14 102 C16.65486546 93.03982907 17.2367924 85.24146181 13.4140625 76.5234375 C11.29220209 72.73691313 8.63482499 69.50525008 5.8046875 66.2265625 C4.1666563 64.20561492 3.04862382 62.36751151 2 60 C1.34 60 0.68 60 0 60 C0 59.34 0 58.68 0 58 C-0.66 58 -1.32 58 -2 58 C-2 57.34 -2 56.68 -2 56 C-2.66 56 -3.32 56 -4 56 C-12.62317984 45.17983167 -16.23643275 35.80683235 -15 22 C-13.80904708 15.60855265 -7.65128461 0 0 0 Z M12 103 C13 106 13 106 13 106 Z M21 103 C21.33 103.66 21.66 104.32 22 105 C22.33 104.34 22.66 103.68 23 103 C22.34 103 21.68 103 21 103 Z " fill="#44C1A6" transform="translate(227,108)"/>
<path d="M0 0 C0.99622345 3.23017905 0.96102999 5.89270469 0.75 9.25 C0.76025789 17.02547852 3.74005329 20.77330183 9.0859375 26.13671875 C10.79701355 27.83735104 12.51733961 29.52019949 14.27807617 31.16943359 C18.9208717 35.59211714 22.51444794 39.75406535 23.49609375 46.31640625 C23.38776895 52.31760032 23.29534305 56.7823735 20 62 C20 62.99 20 63.98 20 65 C19.34 65 18.68 65 18 65 C18 65.66 18 66.32 18 67 C16.68 66.67 15.36 66.34 14 66 C14.06960937 65.02160156 14.13921875 64.04320312 14.2109375 63.03515625 C14.51186276 55.74846604 14.68065517 50.06331915 9.98046875 44.1015625 C7.69963163 41.68126591 5.32981824 39.37257112 2.9375 37.0625 C-3.16248274 31.1097265 -7.22135001 25.35744097 -7.375 16.625 C-7.24765259 13.61764197 -6.80736122 10.89855915 -6 8 C-5.34 8 -4.68 8 -4 8 C-3.896875 7.236875 -3.79375 6.47375 -3.6875 5.6875 C-2.95635961 2.82940576 -2.23048087 1.84257115 0 0 Z " fill="#5BC6AD" transform="translate(198,143)"/>
<path d="M0 0 C-0.33 0.969375 -0.66 1.93875 -1 2.9375 C-2.05173363 5.62149574 -2.05173363 5.62149574 -2 7 C-1.43079834 6.99476318 -0.86159668 6.98952637 -0.27514648 6.98413086 C2.33739083 6.96317113 4.94991037 6.95027996 7.5625 6.9375 C8.90538086 6.92493164 8.90538086 6.92493164 10.27539062 6.91210938 C15.29997943 6.89370429 20.04817291 7.13733602 25 8 C25 8.33 25 8.66 25 9 C17.08 9.33 9.16 9.66 1 10 C0.30117869 12.98031281 0.30117869 12.98031281 0 16 C0.69867188 16.06058594 1.39734375 16.12117188 2.1171875 16.18359375 C3.02726562 16.26738281 3.93734375 16.35117188 4.875 16.4375 C5.77992188 16.51871094 6.68484375 16.59992188 7.6171875 16.68359375 C10 17 10 17 12 18 C14.24950675 18.04711009 16.50030985 18.03733926 18.75 18 C25.2286309 17.93065083 31.61361568 18.24472933 38.07421875 18.78125 C41.87410811 19.06535388 45.48279515 19.00229398 49.25 18.5 C51.10625 18.2525 51.10625 18.2525 53 18 C53.99 20.475 53.99 20.475 55 23 C55.66 23 56.32 23 57 23 C57.99 24.485 57.99 24.485 59 26 C61.56282742 26.72965366 61.56282742 26.72965366 64 27 C63.8125 29.375 63.8125 29.375 63 32 C58.66027069 34.9835639 53.90782494 33.79123975 49 33 C51.66559313 31.22293791 54.0280615 30.12451727 57 29 C57 28.01 57 27.02 57 26 C56.18523193 25.86505127 55.37046387 25.73010254 54.53100586 25.59106445 C52.71289178 25.28672551 50.89487875 24.98158044 49.07913208 24.66342163 C36.0622386 22.38542158 23.11807711 21.15881119 9.9375 20.3125 C8.01752644 20.18240112 6.09760405 20.05154492 4.17773438 19.91992188 C-5.7520275 18.34843919 -5.7520275 18.34843919 -14.4375 21.0625 C-15.283125 21.701875 -16.12875 22.34125 -17 23 C-17.99 22.67 -18.98 22.34 -20 22 C-19.67 20.02 -19.34 18.04 -19 16 C-18.34 16 -17.68 16 -17 16 C-16.80664062 15.38511719 -16.61328125 14.77023438 -16.4140625 14.13671875 C-16.02347656 12.92435547 -16.02347656 12.92435547 -15.625 11.6875 C-15.24214844 10.48673828 -15.24214844 10.48673828 -14.8515625 9.26171875 C-14 7 -14 7 -12 4 C-12.04125 5.11375 -12.0825 6.2275 -12.125 7.375 C-12.41121859 11.04366025 -12.41121859 11.04366025 -10 13 C-9.34 12.01 -8.68 11.02 -8 10 C-7.01 10 -6.02 10 -5 10 C-4.92572162 6.65747276 -4.93453047 4.1964086 -6 1 C-3 0 -3 0 0 0 Z M-8 13 C-7.67 13.66 -7.34 14.32 -7 15 C-6.67 14.34 -6.34 13.68 -6 13 C-6.66 13 -7.32 13 -8 13 Z " fill="#55C1A9" transform="translate(256,198)"/>
<path d="M0 0 C0.99 0 1.98 0 3 0 C3.433125 0.9075 3.86625 1.815 4.3125 2.75 C5.7743067 5.91960902 5.7743067 5.91960902 7.6875 7.8125 C9.81160525 11.35267542 9.42371483 14.9781822 9 19 C8 22.5625 8 22.5625 7 25 C5.02 25.33 3.04 25.66 1 26 C1.350625 26.721875 1.70125 27.44375 2.0625 28.1875 C3.10409017 31.3122705 2.89096572 32.88161996 2 36 C1.01 36 0.02 36 -1 36 C-1.66 36.99 -2.32 37.98 -3 39 C-5.19698784 37.26017415 -5.94121423 36.39913924 -6.35644531 33.57983398 C-6.34709961 32.64469971 -6.33775391 31.70956543 -6.328125 30.74609375 C-6.32296875 29.72708984 -6.3178125 28.70808594 -6.3125 27.65820312 C-6.291875 26.59537109 -6.27125 25.53253906 -6.25 24.4375 C-6.24484375 23.37080078 -6.2396875 22.30410156 -6.234375 21.20507812 C-6.15436126 13.30872253 -6.15436126 13.30872253 -5 11 C-5.99 11 -6.98 11 -8 11 C-7.875 8.25 -7.875 8.25 -7 5 C-4 2.6875 -4 2.6875 -1 1 C-0.67 0.67 -0.34 0.34 0 0 Z " fill="#38BDA1" transform="translate(249,173)"/>
<path d="M0 0 C0.70125 0.45375 1.4025 0.9075 2.125 1.375 C5.02984591 3.01686943 7.8139348 4.03677099 11 5 C11 5.66 11 6.32 11 7 C11.66 7 12.32 7 13 7 C14.65625 9.046875 14.65625 9.046875 16.5 11.75 C17.1084375 12.63171875 17.716875 13.5134375 18.34375 14.421875 C22.11735331 20.29588015 22.11735331 20.29588015 21.625 23.25 C21.315625 24.11625 21.315625 24.11625 21 25 C18 20.25 18 20.25 18 18 C17.236875 18.474375 16.47375 18.94875 15.6875 19.4375 C13 21 13 21 10 22 C9.67 22.99 9.34 23.98 9 25 C8.34870203 26.34090759 7.68486725 27.67592331 7 29 C7.99 29 8.98 29 10 29 C9.505 31.475 9.505 31.475 9 34 C7.12993657 31.66242071 5.67536672 29.39710963 4.25 26.75 C2.16174899 22.93382365 -0.6345981 20.04561591 -3.70703125 16.9921875 C-5 15 -5 15 -4.82421875 12.4453125 C-4 10 -4 10 -2 7 C-1.34 7 -0.68 7 0 7 C-0.185625 6.030625 -0.37125 5.06125 -0.5625 4.0625 C-0.706875 3.051875 -0.85125 2.04125 -1 1 C-0.67 0.67 -0.34 0.34 0 0 Z " fill="#40C3A8" transform="translate(234,155)"/>
<path d="M0 0 C4.63964525 0.44899793 9.271295 0.91091983 13.8984375 1.4765625 C51.16472327 6.0243708 97.33948281 9.24696081 134 0 C136.33300933 -0.03888349 138.66709801 -0.0448635 141 0 C141 0.66 141 1.32 141 2 C139.865625 2.12375 138.73125 2.2475 137.5625 2.375 C136.386875 2.58125 135.21125 2.7875 134 3 C133.67 3.66 133.34 4.32 133 5 C130.98177083 4.90234375 128.96354167 4.8046875 126.9453125 4.70703125 C126.30335938 4.80371094 125.66140625 4.90039062 125 5 C124.34 5.99 123.68 6.98 123 8 C122.00355469 7.83757812 121.00710938 7.67515625 119.98046875 7.5078125 C116.08083427 6.95226427 112.25368747 6.86702995 108.3125 6.875 C107.02988281 6.87242187 105.74726563 6.86984375 104.42578125 6.8671875 C101.68675494 6.97337552 99.59620712 7.2615754 97 8 C94 8 94 8 91 7 C89.51813661 6.90865406 88.03252693 6.87210177 86.54785156 6.87060547 C85.64971741 6.86745331 84.75158325 6.86430115 83.82623291 6.86105347 C82.8574823 6.8630777 81.88873169 6.86510193 80.890625 6.8671875 C79.89045349 6.86623077 78.89028198 6.86527405 77.85980225 6.86428833 C75.74149513 6.86360747 73.62318593 6.86545523 71.50488281 6.86962891 C68.27664437 6.87495603 65.04854648 6.86969235 61.8203125 6.86328125 C59.76041636 6.86394249 57.70052031 6.86522459 55.640625 6.8671875 C54.67997131 6.86516327 53.71931763 6.86313904 52.72955322 6.86105347 C47.7027653 6.87845162 42.9593121 7.19321046 38 8 C37.01 8 36.02 8 35 8 C33.329375 8.309375 33.329375 8.309375 31.625 8.625 C27.85613798 9.01488228 26.33936772 8.57692364 23 7 C22.01 7 21.02 7 20 7 C20 6.34 20 5.68 20 5 C18.35 5.33 16.7 5.66 15 6 C15 5.34 15 4.68 15 4 C13.68 4.33 12.36 4.66 11 5 C11 4.34 11 3.68 11 3 C10.34 3 9.68 3 9 3 C8.67 3.66 8.34 4.32 8 5 C8 4.34 8 3.68 8 3 C6.68 3.33 5.36 3.66 4 4 C4 3.34 4 2.68 4 2 C2.68 2 1.36 2 0 2 C0 1.34 0 0.68 0 0 Z " fill="#57BCA6" transform="translate(164,231)"/>
<path d="M0 0 C4.65337097 3.56845583 9.25745494 7.19151648 11 13 C11.76637516 19.96704693 11.83608687 25.92619579 8 32 C8 32.99 8 33.98 8 35 C7.34 35 6.68 35 6 35 C6 35.66 6 36.32 6 37 C4.68 36.67 3.36 36.34 2 36 C2.06960937 35.03320312 2.13921875 34.06640625 2.2109375 33.0703125 C2.58799698 24.00292984 1.84211005 18.38957373 -4 11 C-2.68 11.33 -1.36 11.66 0 12 C0 12.99 0 13.98 0 15 C0.66 15 1.32 15 2 15 C2.33 13.68 2.66 12.36 3 11 C3.66 11 4.32 11 5 11 C4.67 9.35 4.34 7.7 4 6 C3.01 5.67 2.02 5.34 1 5 C0.67 3.35 0.34 1.7 0 0 Z " fill="#60C8B1" transform="translate(210,173)"/>
<path d="M0 0 C3.15778574 0.74300841 5.96430758 0.04704292 9.125 -0.5 C9.785 1.15 10.445 2.8 11.125 4.5 C11.785 4.5 12.445 4.5 13.125 4.5 C14.115 5.985 14.115 5.985 15.125 7.5 C17.68782742 8.22965366 17.68782742 8.22965366 20.125 8.5 C19.9375 10.875 19.9375 10.875 19.125 13.5 C14.78527069 16.4835639 10.03282494 15.29123975 5.125 14.5 C7.79059313 12.72293791 10.1530615 11.62451727 13.125 10.5 C13.125 9.51 13.125 8.52 13.125 7.5 C11.9184375 7.314375 11.9184375 7.314375 10.6875 7.125 C-1.28483607 5.02459016 -1.28483607 5.02459016 -6.875 2.5 C-6.875 1.84 -6.875 1.18 -6.875 0.5 C-2.35887097 -0.62903226 -2.35887097 -0.62903226 0 0 Z " fill="#42BA9F" transform="translate(299.875,216.5)"/>
<path d="M0 0 C0.268125 0.804375 0.53625 1.60875 0.8125 2.4375 C1.204375 3.283125 1.59625 4.12875 2 5 C2.99 5.33 3.98 5.66 5 6 C5 7.65 5 9.3 5 11 C4.34 11 3.68 11 3 11 C2.67 12.32 2.34 13.64 2 15 C1.34 15 0.68 15 0 15 C-0.33 14.01 -0.66 13.02 -1 12 C-2.175625 11.566875 -2.175625 11.566875 -3.375 11.125 C-6.70139922 9.69940033 -7.56331131 8.27245757 -9 5 C-7.35234966 0.05704899 -4.76872479 -0.25776891 0 0 Z " fill="#3ABEA2" transform="translate(210,173)"/>
<path d="M0 0 C-0.33 1.32 -0.66 2.64 -1 4 C-8.28448154 6.31994901 -15.09238616 6.17230591 -22.6875 5.9765625 C-24.63487061 5.93902359 -24.63487061 5.93902359 -26.62158203 5.90072632 C-30.04779895 5.8345598 -33.47360054 5.75556677 -36.8994751 5.67376709 C-40.40547937 5.59236952 -43.91172484 5.52328805 -47.41796875 5.453125 C-54.27892898 5.31403779 -61.13952884 5.16137891 -68 5 C-66 3 -66 3 -63.6335144 2.75949097 C-62.14792526 2.7661528 -62.14792526 2.7661528 -60.63232422 2.77294922 C-58.95080765 2.77317581 -58.95080765 2.77317581 -57.23532104 2.77340698 C-56.02071198 2.78372955 -54.80610291 2.79405212 -53.5546875 2.8046875 C-52.31453888 2.8075174 -51.07439026 2.81034729 -49.79666138 2.81326294 C-46.49875367 2.82257826 -43.20104028 2.8405511 -39.90319824 2.8626709 C-36.5383543 2.88312526 -33.17348193 2.89226377 -29.80859375 2.90234375 C-23.20565277 2.92443481 -16.60284229 2.95793517 -10 3 C-9.67 2.01 -9.34 1.02 -9 0 C-5.93109813 -1.53445094 -3.29905734 -0.54984289 0 0 Z " fill="#2D927E" transform="translate(274,370)"/>
<path d="M0 0 C0.87398437 0.09087891 0.87398437 0.09087891 1.765625 0.18359375 C8.50409957 0.87227433 15.24850516 1.45477619 22 2 C22 2.66 22 3.32 22 4 C23.15757812 4.06058594 24.31515625 4.12117187 25.5078125 4.18359375 C27.04688457 4.26805502 28.58594655 4.35270018 30.125 4.4375 C31.26582031 4.49647461 31.26582031 4.49647461 32.4296875 4.55664062 C36.68509203 4.79509002 40.80370826 5.20230237 45 6 C45 6.33 45 6.66 45 7 C38.375 8 38.375 8 35 8 C33.329375 8.309375 33.329375 8.309375 31.625 8.625 C27.85613798 9.01488228 26.33936772 8.57692364 23 7 C22.01 7 21.02 7 20 7 C20 6.34 20 5.68 20 5 C18.35 5.33 16.7 5.66 15 6 C15 5.34 15 4.68 15 4 C13.68 4.33 12.36 4.66 11 5 C11 4.34 11 3.68 11 3 C10.34 3 9.68 3 9 3 C8.67 3.66 8.34 4.32 8 5 C8 4.34 8 3.68 8 3 C6.68 3.33 5.36 3.66 4 4 C4 3.34 4 2.68 4 2 C2.68 2 1.36 2 0 2 C0 1.34 0 0.68 0 0 Z " fill="#34B59A" transform="translate(164,231)"/>
<path d="M0 0 C2.27886198 1.46365932 3.75520639 2.42265659 4.828125 4.953125 C6.24636868 12.67467391 6.14229986 20.1735076 6 28 C10.95 28 15.9 28 21 28 C21 28.33 21 28.66 21 29 C15.06 29.33 9.12 29.66 3 30 C1.875 22.125 1.875 22.125 1.90234375 18.59765625 C1.90556641 17.85322266 1.90878906 17.10878906 1.91210938 16.34179688 C1.92048828 15.58962891 1.92886719 14.83746094 1.9375 14.0625 C1.94201172 13.28326172 1.94652344 12.50402344 1.95117188 11.70117188 C1.96283092 9.80074732 1.98076123 7.90036294 2 6 C1.34 6 0.68 6 0 6 C-1.125 2.25 -1.125 2.25 0 0 Z " fill="#70CDBA" transform="translate(330,218)"/>
<path d="M0 0 C3.29164829 -0.02895225 6.58326399 -0.0467823 9.875 -0.0625 C10.81214844 -0.07087891 11.74929688 -0.07925781 12.71484375 -0.08789062 C14.05869141 -0.09272461 14.05869141 -0.09272461 15.4296875 -0.09765625 C16.67081299 -0.10551147 16.67081299 -0.10551147 17.93701172 -0.11352539 C20 0 20 0 22 1 C24.33333702 1.0204167 26.6672006 0.99158708 29 0.9375 C37.06166385 0.83911645 44.61425348 1.55331829 52 5 C52 5.33 52 5.66 52 6 C47.04248047 5.61865234 42.08496094 5.23730469 37.12744141 4.85595703 C35.33959229 4.71843018 35.33959229 4.71843018 33.515625 4.578125 C29.74934896 4.28841146 25.98307292 3.99869792 22.21679688 3.70898438 C20.98509766 3.61423828 19.75339844 3.51949219 18.484375 3.421875 C16.11458333 3.23958333 13.74479167 3.05729167 11.375 2.875 C10.23756348 2.78750488 9.10012695 2.70000977 7.92822266 2.60986328 C5.28548177 2.40657552 2.64274089 2.20328776 0 2 C0 1.34 0 0.68 0 0 Z " fill="#7ACDBB" transform="translate(246,215)"/>
<path d="M0 0 C2 3.75 2 3.75 2 6 C3.43791516 5.85831863 4.8753237 5.71148957 6.3125 5.5625 C7.11300781 5.48128906 7.91351563 5.40007812 8.73828125 5.31640625 C11.16087179 5.04734307 11.16087179 5.04734307 14 4 C16.6875 4.9375 16.6875 4.9375 19 6 C19 6.33 19 6.66 19 7 C16.36 7 13.72 7 11 7 C11 7.66 11 8.32 11 9 C6.5975268 12.65083143 3.67177385 13.45374191 -2 13 C-1.835 11.948125 -1.67 10.89625 -1.5 9.8125 C-0.93769202 6.16575953 -0.93769202 6.16575953 -1 3.125 C-1 1 -1 1 0 0 Z " fill="#4AC1A8" transform="translate(281,172)"/>
<path d="M0 0 C0.66 0 1.32 0 2 0 C2.0825 0.5775 2.165 1.155 2.25 1.75 C2.84645736 4.18509149 2.84645736 4.18509149 5.125 5.8125 C7 8 7 8 6.75 11.75 C6.5025 12.8225 6.255 13.895 6 15 C5.01 15 4.02 15 3 15 C2.01 16.485 2.01 16.485 1 18 C-0.515625 16.875 -0.515625 16.875 -2 15 C-2.109375 12.1875 -2.109375 12.1875 -1.75 9 C-1.64171875 7.948125 -1.5334375 6.89625 -1.421875 5.8125 C-1 3 -1 3 0 0 Z " fill="#39B89E" transform="translate(245,194)"/>
<path d="M0 0 C1.29228516 -0.00322266 2.58457031 -0.00644531 3.91601562 -0.00976562 C9.85901737 0.023984 14.70478421 0.18532588 20.3125 2.3125 C20.3125 2.6425 20.3125 2.9725 20.3125 3.3125 C19.31919678 3.30202637 18.32589355 3.29155273 17.30249023 3.28076172 C13.5919154 3.24436489 9.88135613 3.22152839 6.1706543 3.20263672 C4.56939026 3.19262377 2.96814429 3.1790094 1.36694336 3.16162109 C-0.94421876 3.13716435 -3.25513762 3.12596971 -5.56640625 3.1171875 C-6.27398575 3.10686493 -6.98156525 3.09654236 -7.71058655 3.08590698 C-12.37243732 3.08487162 -16.25375815 3.93617365 -20.6875 5.3125 C-24.125 5.4375 -24.125 5.4375 -26.6875 5.3125 C-18.35118141 -0.24504572 -9.76864127 -0.12290691 0 0 Z " fill="#6ACCB6" transform="translate(312.6875,118.6875)"/>
<path d="M0 0 C1.37432457 3.81756824 0.67975039 7.07255329 0 11 C0.66 11.33 1.32 11.66 2 12 C1.67 13.98 1.34 15.96 1 18 C0.01 18 -0.98 18 -2 18 C-1.67 18.99 -1.34 19.98 -1 21 C-1.99 21 -2.98 21 -4 21 C-4.97771193 18.0668642 -5.13419011 16.11821006 -5.125 13.0625 C-5.12757813 12.20785156 -5.13015625 11.35320312 -5.1328125 10.47265625 C-5.00930254 8.17319148 -4.64420687 6.20359652 -4 4 C-3.34 4 -2.68 4 -2 4 C-1.34 2.68 -0.68 1.36 0 0 Z " fill="#4EC0A7" transform="translate(196,147)"/>
<path d="M0 0 C0.51495715 2.05982859 1.02686964 4.11755467 1.5 6.1875 C1.84109624 8.00563141 1.84109624 8.00563141 3 9 C3.66 8.01 4.32 7.02 5 6 C5.99 6.66 6.98 7.32 8 8 C7.67 8.66 7.34 9.32 7 10 C6.34 9.67 5.68 9.34 5 9 C4.61134766 9.88751953 4.61134766 9.88751953 4.21484375 10.79296875 C2.91285907 13.15831069 1.59509577 14.550917 -0.4375 16.3125 C-1.03433594 16.84488281 -1.63117188 17.37726563 -2.24609375 17.92578125 C-2.82488281 18.28027344 -3.40367187 18.63476562 -4 19 C-4.99 18.67 -5.98 18.34 -7 18 C-6.67 16.02 -6.34 14.04 -6 12 C-5.34 12 -4.68 12 -4 12 C-3.79503906 11.38511719 -3.59007812 10.77023438 -3.37890625 10.13671875 C-2.25260417 6.7578125 -1.12630208 3.37890625 0 0 Z " fill="#75C5B9" transform="translate(243,202)"/>
<path d="M0 0 C0 0.66 0 1.32 0 2 C-1.06541016 2.18175781 -1.06541016 2.18175781 -2.15234375 2.3671875 C-3.07144531 2.53476563 -3.99054688 2.70234375 -4.9375 2.875 C-5.85402344 3.03742188 -6.77054688 3.19984375 -7.71484375 3.3671875 C-8.46894531 3.57601562 -9.22304687 3.78484375 -10 4 C-10.33 4.66 -10.66 5.32 -11 6 C-16.25150905 8.21730382 -16.25150905 8.21730382 -18.9375 7.4375 C-22.379544 6.70736945 -24.89511536 8.507267 -28 10 C-28.66 9.34 -29.32 8.68 -30 8 C-24.79566984 4.96414074 -19.68094601 3.2147785 -13.875 1.75 C-13.194375 1.57500977 -12.51375 1.40001953 -11.8125 1.21972656 C-7.79693948 0.24903902 -4.12603183 -0.17995154 0 0 Z " fill="#31B997" transform="translate(169,209)"/>
<path d="M0 0 C0.66 0 1.32 0 2 0 C2.53679805 13.40006976 2.53679805 13.40006976 -1 19 C-1 19.99 -1 20.98 -1 22 C-1.66 22 -2.32 22 -3 22 C-3 22.66 -3 23.32 -3 24 C-4.32 23.67 -5.64 23.34 -7 23 C-6.67 18.38 -6.34 13.76 -6 9 C-5.67 9 -5.34 9 -5 9 C-5 12.3 -5 15.6 -5 19 C-4.01 15.535 -4.01 15.535 -3 12 C-2.01 12 -1.02 12 0 12 C0 8.04 0 4.08 0 0 Z " fill="#6EBFAF" transform="translate(219,186)"/>
<path d="M0 0 C-0.20496094 0.64066406 -0.40992188 1.28132813 -0.62109375 1.94140625 C-2.7036402 8.62747644 -4.21387935 14.94198158 -4 22 C-4.66 22 -5.32 22 -6 22 C-6 18.37 -6 14.74 -6 11 C-6.66 10.67 -7.32 10.34 -8 10 C-8.309375 10.78375 -8.61875 11.5675 -8.9375 12.375 C-10 15 -10 15 -11 17 C-11.66 17 -12.32 17 -13 17 C-11.72147651 11.88590604 -6.29730366 0 0 0 Z " fill="#71CDB8" transform="translate(227,108)"/>
<path d="M0 0 C2.64 0.33 5.28 0.66 8 1 C8 2.65 8 4.3 8 6 C8.845625 5.979375 9.69125 5.95875 10.5625 5.9375 C14.11892777 6.00216232 17.49093503 6.4385496 21 7 C21.33 7.99 21.66 8.98 22 10 C22.33 10.66 22.66 11.32 23 12 C23.99 12.33 24.98 12.66 26 13 C17.95758722 14.09669265 11.03095187 9.9420538 4.671875 5.30078125 C3.05066596 3.9398883 1.51382484 2.47941973 0 1 C0 0.67 0 0.34 0 0 Z " fill="#4EA593" transform="translate(176,362)"/>
<path d="M0 0 C2.9375 0.375 2.9375 0.375 6 1 C6.99 1 7.98 1 9 1 C11.33333333 1 13.66666667 1 16 1 C16.33 1.99 16.66 2.98 17 4 C10.565 4.495 10.565 4.495 4 5 C4 7.97 4 10.94 4 14 C3.67 14 3.34 14 3 14 C2.67 11.69 2.34 9.38 2 7 C1.01 7 0.02 7 -1 7 C-1.625 4.625 -1.625 4.625 -2 2 C-1.34 1.34 -0.68 0.68 0 0 Z " fill="#54BDA7" transform="translate(330,264)"/>
<path d="M0 0 C0.66 0.33 1.32 0.66 2 1 C-0.46153846 5.8 -0.46153846 5.8 -3.1875 6.8125 C-3.785625 6.874375 -4.38375 6.93625 -5 7 C-4.95875 8.27875 -4.9175 9.5575 -4.875 10.875 C-4.8046875 13.0546875 -4.8046875 13.0546875 -5 15 C-5.66 15.66 -6.32 16.32 -7 17 C-7.62931533 19.67595823 -7.78130812 22.24448232 -8 25 C-7.67 25.33 -7.34 25.66 -7 26 C-6.95907063 28.33297433 -6.95758277 30.66705225 -7 33 C-10.36616767 29.48747721 -11.00832484 25.72018205 -11 21 C-10.32088976 15.50199794 -8.73223955 10.84351556 -6 6 C-5.34 6 -4.68 6 -4 6 C-3.71125 5.38125 -3.4225 4.7625 -3.125 4.125 C-2 2 -2 2 0 0 Z " fill="#58C9B0" transform="translate(276,129)"/>
<path d="M0 0 C0.99 0.33 1.98 0.66 3 1 C3.0810206 3.10353495 3.13919907 5.20795952 3.1875 7.3125 C3.22230469 8.48425781 3.25710937 9.65601562 3.29296875 10.86328125 C3 14 3 14 1.48828125 15.91796875 C0.75158203 16.45357422 0.75158203 16.45357422 0 17 C-0.99 16.67 -1.98 16.34 -3 16 C-3.2165625 14.6078125 -3.2165625 14.6078125 -3.4375 13.1875 C-3.92100111 9.99274889 -3.92100111 9.99274889 -5 7 C-4.34 7 -3.68 7 -3 7 C-2.690625 6.21625 -2.38125 5.4325 -2.0625 4.625 C-1 2 -1 2 0 0 Z " fill="#3DC8AC" transform="translate(219,118)"/>
<path d="M0 0 C0 3.96 0 7.92 0 12 C-0.99 12 -1.98 12 -3 12 C-3 14.31 -3 16.62 -3 19 C-3.66 19 -4.32 19 -5 19 C-5.22181406 16.56304285 -5.42791119 14.126474 -5.625 11.6875 C-5.68945312 10.99720703 -5.75390625 10.30691406 -5.8203125 9.59570312 C-6.11802847 5.7440028 -6.20763723 4.31145584 -4 1 C-2 0 -2 0 0 0 Z " fill="#35B59A" transform="translate(219,186)"/>
<path d="M0 0 C0.96801157 3.20419333 1.04599979 5.9773108 0.9375 9.3125 C0.87927129 14.75688395 1.54193091 19.08386181 4 24 C1.69 24.33 -0.62 24.66 -3 25 C-3.33 24.01 -3.66 23.02 -4 22 C-3.01 22 -2.02 22 -1 22 C-1.33 20.35 -1.66 18.7 -2 17 C-1.34 16.67 -0.68 16.34 0 16 C-0.99 15.67 -1.98 15.34 -3 15 C-2.67 11.7 -2.34 8.4 -2 5 C-2.99 5.495 -2.99 5.495 -4 6 C-2.84826645 3.53199953 -1.95216435 1.95216435 0 0 Z " fill="#4BC0A8" transform="translate(198,143)"/>
<path d="M0 0 C2.46550656 2.46550656 2.25642193 3.18745017 2.265625 6.578125 C2.26820313 7.49207031 2.27078125 8.40601563 2.2734375 9.34765625 C2.26570313 10.30542969 2.25796875 11.26320313 2.25 12.25 C2.25773437 13.19230469 2.26546875 14.13460938 2.2734375 15.10546875 C2.25933639 20.13251462 1.99006899 24.29332891 0 29 C-1.0625 27.25 -1.0625 27.25 -2 25 C-1.85691406 24.42894531 -1.71382813 23.85789062 -1.56640625 23.26953125 C-0.82219208 20.28754204 -0.86801418 17.5077693 -0.875 14.4375 C-0.87113281 12.73400391 -0.87113281 12.73400391 -0.8671875 10.99609375 C-0.8652772 7.94766002 -0.8652772 7.94766002 -2 5 C-1.0625 2.3125 -1.0625 2.3125 0 0 Z " fill="#63B8A6" transform="translate(381,271)"/>
<path d="M0 0 C4.571279 0.54855348 8.67435795 1.41744803 13 3 C12.8125 5.375 12.8125 5.375 12 8 C7.66027069 10.9835639 2.90782494 9.79123975 -2 9 C0.66559313 7.22293791 3.0280615 6.12451727 6 5 C6 4.01 6 3.02 6 2 C3.03 1.505 3.03 1.505 0 1 C0 0.67 0 0.34 0 0 Z " fill="#50C1A8" transform="translate(307,222)"/>
<path d="M0 0 C2.475 0.495 2.475 0.495 5 1 C0.4703737 6.18114789 -7.47243351 9.930585 -14.25 10.875 C-15.61125 10.936875 -15.61125 10.936875 -17 11 C-16.8125 9.125 -16.8125 9.125 -16 7 C-13.4375 5.75 -13.4375 5.75 -11 5 C-10.67 5.66 -10.34 6.32 -10 7 C-9.01 7 -8.02 7 -7 7 C-7 6.34 -7 5.68 -7 5 C-5.5459375 4.5978125 -5.5459375 4.5978125 -4.0625 4.1875 C-3.051875 3.795625 -2.04125 3.40375 -1 3 C-0.67 2.01 -0.34 1.02 0 0 Z " fill="#4DAC98" transform="translate(355,324)"/>
<path d="M0 0 C2.2421875 0.171875 2.2421875 0.171875 4.875 0.75 C6.17050781 1.02070313 6.17050781 1.02070313 7.4921875 1.296875 C9.86497785 1.96214332 11.84556125 2.81756385 14 4 C12.875 6 12.875 6 11 8 C7.8125 8.25 7.8125 8.25 5 8 C5 6.68 5 5.36 5 4 C4.34 4 3.68 4 3 4 C3 3.34 3 2.68 3 2 C1.35 2 -0.3 2 -2 2 C-1.34 1.34 -0.68 0.68 0 0 Z " fill="#47B99D" transform="translate(351,247)"/>
<path d="M0 0 C9.90600407 -0.58912359 19.30752309 1.20865113 29 3 C25.85909063 4.8759207 23.92116258 5.18257272 20.3125 4.6875 C19.52488281 4.58824219 18.73726563 4.48898438 17.92578125 4.38671875 C16 4 16 4 15 3 C11.66359794 3.00907865 8.33788721 3.13338291 5.00390625 3.2578125 C4.01261719 3.17273438 3.02132813 3.08765625 2 3 C1.34 2.01 0.68 1.02 0 0 Z " fill="#76CBBB" transform="translate(281,207)"/>
<path d="M0 0 C1.98 0.66 3.96 1.32 6 2 C6 2.66 6 3.32 6 4 C6.66 4.33 7.32 4.66 8 5 C8 5.99 8 6.98 8 8 C9.32 7.34 10.64 6.68 12 6 C14 9 14 9 14 13 C11.33289346 12.84759391 9.5494129 12.50635081 7.5546875 10.66796875 C4 6.49375 4 6.49375 4 4 C3.34 4 2.68 4 2 4 C1.34 2.68 0.68 1.36 0 0 Z " fill="#4AA393" transform="translate(162,347)"/>
<path d="M0 0 C1.47965926 0.14573058 2.96403843 0.24663268 4.44921875 0.31640625 C5.29677734 0.35830078 6.14433594 0.40019531 7.01757812 0.44335938 C7.89865234 0.48267578 8.77972656 0.52199219 9.6875 0.5625 C11.02651367 0.62727539 11.02651367 0.62727539 12.39257812 0.69335938 C14.59490108 0.79935353 16.79733473 0.90142051 19 1 C19 1.33 19 1.66 19 2 C7.0167245 2.96387216 -4.12877047 2.98126727 -16 1 C-16 0.67 -16 0.34 -16 0 C-13.89651926 -0.19504458 -11.79217415 -0.38078496 -9.6875 -0.5625 C-8.51574219 -0.66691406 -7.34398437 -0.77132812 -6.13671875 -0.87890625 C-3 -1 -3 -1 0 0 Z " fill="#6BCCB3" transform="translate(308,179)"/>
<path d="M0 0 C0.99 0 1.98 0 3 0 C4.51708428 9.41002278 4.51708428 9.41002278 2 14 C3.65 14 5.3 14 7 14 C6 16 6 16 3.6875 17.125 C1 18 1 18 -3 18 C-2.70351563 17.30519531 -2.40703125 16.61039063 -2.1015625 15.89453125 C-0.94421163 12.85340716 -0.13934996 9.84912937 0.625 6.6875 C0.88539063 5.61886719 1.14578125 4.55023438 1.4140625 3.44921875 C1.60742188 2.64097656 1.80078125 1.83273438 2 1 C1.34 0.67 0.68 0.34 0 0 Z " fill="#7CCDBD" transform="translate(277,171)"/>
<path d="M0 0 C1.37671875 0.08507812 1.37671875 0.08507812 2.78125 0.171875 C5.02178812 0.31190863 7.26095042 0.4631487 9.5 0.625 C9.5 0.955 9.5 1.285 9.5 1.625 C7.85451172 1.71587891 7.85451172 1.71587891 6.17578125 1.80859375 C4.72134346 1.89304498 3.26691695 1.97769066 1.8125 2.0625 C1.09126953 2.10181641 0.37003906 2.14113281 -0.37304688 2.18164062 C-4.17925296 2.4075798 -7.76123859 2.84609137 -11.5 3.625 C-12.93628457 3.68766512 -14.3750555 3.71186347 -15.8125 3.6875 C-17.6378125 3.6565625 -17.6378125 3.6565625 -19.5 3.625 C-18.5 1.625 -18.5 1.625 -15.09375 0.4765625 C-10.01205991 -0.68269805 -5.16333224 -0.37524217 0 0 Z " fill="#82D1C0" transform="translate(187.5,217.375)"/>
<path d="M0 0 C0.33 0.66 0.66 1.32 1 2 C-3.03523352 6.81123996 -7.04467233 11.13242719 -12 15 C-11.29445932 11.33118845 -9.72264494 8.29549466 -8 5 C-6.35 5 -4.7 5 -3 5 C-2.87625 4.360625 -2.7525 3.72125 -2.625 3.0625 C-2.41875 2.381875 -2.2125 1.70125 -2 1 C-1.34 0.67 -0.68 0.34 0 0 Z " fill="#54A797" transform="translate(301,351)"/>
<path d="M0 0 C0.99 0.33 1.98 0.66 3 1 C2.01 1.495 2.01 1.495 1 2 C1.03955898 3.92309422 1.03955898 3.92309422 2 6 C4.98352894 7.78379415 4.98352894 7.78379415 8 9 C8 9.33 8 9.66 8 10 C0.57391304 10.48695652 0.57391304 10.48695652 -2.0625 8.25 C-3 6 -3 6 -2.8125 3.875 C-2 2 -2 2 0 0 Z " fill="#59C1AA" transform="translate(155,221)"/>
<path d="M0 0 C3.24983 -0.08728882 6.4993575 -0.14048658 9.75 -0.1875 C11.13058594 -0.22520508 11.13058594 -0.22520508 12.5390625 -0.26367188 C13.42851562 -0.27333984 14.31796875 -0.28300781 15.234375 -0.29296875 C16.05131836 -0.3086792 16.86826172 -0.32438965 17.70996094 -0.34057617 C20 0 20 0 24 3 C16.08 2.67 8.16 2.34 0 2 C0 1.34 0 0.68 0 0 Z " fill="#6EC6B4" transform="translate(246,215)"/>
<path d="M0 0 C5.01113235 1.4317521 6.94469549 3.98445693 10 8 C9.01 9.485 9.01 9.485 8 11 C6.125 10.375 6.125 10.375 4 9 C2.875 6.0625 2.875 6.0625 2 3 C1.34 2.01 0.68 1.02 0 0 Z " fill="#3EB599" transform="translate(365,252)"/>
<path d="M0 0 C2 2 2 2 2 5 C2.66 5 3.32 5 4 5 C4.16435547 5.92232422 4.16435547 5.92232422 4.33203125 6.86328125 C4.49058594 7.67152344 4.64914063 8.47976563 4.8125 9.3125 C5.03873047 10.51326172 5.03873047 10.51326172 5.26953125 11.73828125 C6.07572236 14.23445587 7.02052002 15.32422106 9 17 C8.34 17.99 7.68 18.98 7 20 C3.02723755 14.04085632 -0.37624629 7.26544556 0 0 Z " fill="#61B0A2" transform="translate(143,307)"/>
<path d="M0 0 C7.26 0 14.52 0 22 0 C21 7 21 7 19 10 C17.51423365 5.98843085 18.19252122 5.51869696 20 1 C13.4 1 6.8 1 0 1 C0 0.67 0 0.34 0 0 Z " fill="#86D7C4" transform="translate(219,204)"/>
<path d="M0 0 C0.87398437 0.09087891 0.87398437 0.09087891 1.765625 0.18359375 C8.50409957 0.87227433 15.24850516 1.45477619 22 2 C22 2.33 22 2.66 22 3 C17.71 3 13.42 3 9 3 C8.67 3.66 8.34 4.32 8 5 C8 4.34 8 3.68 8 3 C6.68 3.33 5.36 3.66 4 4 C4 3.34 4 2.68 4 2 C2.68 2 1.36 2 0 2 C0 1.34 0 0.68 0 0 Z " fill="#62BEAB" transform="translate(164,231)"/>
<path d="M0 0 C2.25 0.25 2.25 0.25 4 1 C3.01 1.99 2.02 2.98 1 4 C2.65 4.33 4.3 4.66 6 5 C6 5.33 6 5.66 6 6 C-3.405 6.495 -3.405 6.495 -13 7 C-13 6.67 -13 6.34 -13 6 C-12.39671875 5.90203125 -11.7934375 5.8040625 -11.171875 5.703125 C-6.06326155 4.7473199 -3.60712188 3.87431609 0 0 Z " fill="#39B39A" transform="translate(212,210)"/>
<path d="M0 0 C0.598125 0.350625 1.19625 0.70125 1.8125 1.0625 C1.1525 3.0425 0.4925 5.0225 -0.1875 7.0625 C-1.5075 6.7325 -2.8275 6.4025 -4.1875 6.0625 C-4.1875 5.4025 -4.1875 4.7425 -4.1875 4.0625 C-4.8475 3.7325 -5.5075 3.4025 -6.1875 3.0625 C-5.8575 2.0725 -5.5275 1.0825 -5.1875 0.0625 C-2.1875 -0.9375 -2.1875 -0.9375 0 0 Z " fill="#37C3A8" transform="translate(201.1875,166.9375)"/>
<path d="M0 0 C0.66 0 1.32 0 2 0 C2.144375 1.134375 2.28875 2.26875 2.4375 3.4375 C2.61171478 6.80777201 2.61171478 6.80777201 4 8 C4.23527773 10.34987262 4.41386417 12.70556039 4.5625 15.0625 C4.64628906 16.35285156 4.73007813 17.64320313 4.81640625 18.97265625 C4.87699219 19.97167969 4.93757812 20.97070312 5 22 C4.67 22 4.34 22 4 22 C3.32810344 19.08444885 2.66230692 16.16773049 2 13.25 C1.80921875 12.425 1.6184375 11.6 1.421875 10.75 C1.24140625 9.95078125 1.0609375 9.1515625 0.875 8.328125 C0.70742187 7.5949707 0.53984375 6.86181641 0.3671875 6.10644531 C0 4 0 4 0 0 Z " fill="#71B9AC" transform="translate(137,284)"/>
<path d="M0 0 C0 0.66 0 1.32 0 2 C-6.11980533 3.40454548 -11.71739294 4.23268915 -18 4 C-12.64766505 0.4317767 -6.36973531 -0.32665309 0 0 Z " fill="#6CC7B0" transform="translate(169,209)"/>
<path d="M0 0 C0.51495715 2.05982859 1.02686964 4.11755467 1.5 6.1875 C1.84109624 8.00563141 1.84109624 8.00563141 3 9 C3.66 8.01 4.32 7.02 5 6 C5.99 6.66 6.98 7.32 8 8 C7.67 8.66 7.34 9.32 7 10 C6.34 9.67 5.68 9.34 5 9 C4.34 10.32 3.68 11.64 3 13 C2.67 12.34 2.34 11.68 2 11 C1.01 11 0.02 11 -1 11 C-1.125 3.375 -1.125 3.375 0 0 Z " fill="#65CCBC" transform="translate(243,202)"/>
<path d="M0 0 C2.05596957 3.70074522 3.36675691 7.06142774 2.5625 11.3125 C2.376875 11.869375 2.19125 12.42625 2 13 C0.68 13 -0.64 13 -2 13 C-1.835 11.948125 -1.67 10.89625 -1.5 9.8125 C-0.93769202 6.16575953 -0.93769202 6.16575953 -1 3.125 C-1 1 -1 1 0 0 Z " fill="#36BFA2" transform="translate(281,172)"/>
<path d="M0 0 C0 0.66 0 1.32 0 2 C-5.20173095 2.86809439 -10.16978816 3.12515348 -15.4375 3.0625 C-16.16904297 3.05798828 -16.90058594 3.05347656 -17.65429688 3.04882812 C-19.43623419 3.03718148 -21.21812863 3.01925191 -23 3 C-23 2.67 -23 2.34 -23 2 C-20.47980028 1.66114962 -17.95901484 1.32879665 -15.4375 1 C-14.73302734 0.90460938 -14.02855469 0.80921875 -13.30273438 0.7109375 C-8.82632145 0.13333583 -4.51338762 -0.09489383 0 0 Z " fill="#6AC1B0" transform="translate(305,231)"/>
<path d="M0 0 C1.60332791 -0.08121924 3.20784026 -0.13929134 4.8125 -0.1875 C6.15248047 -0.23970703 6.15248047 -0.23970703 7.51953125 -0.29296875 C10 0 10 0 11.82421875 1.26171875 C13 3 13 3 13 7 C12.34 7 11.68 7 11 7 C11 6.34 11 5.68 11 5 C10.34 5 9.68 5 9 5 C9 4.34 9 3.68 9 3 C4.545 2.01 4.545 2.01 0 1 C0 0.67 0 0.34 0 0 Z " fill="#69BDAB" transform="translate(347,268)"/>
<path d="M0 0 C0.33 0 0.66 0 1 0 C1 3.3 1 6.6 1 10 C1.99 9.67 2.98 9.34 4 9 C4.33 10.32 4.66 11.64 5 13 C4.34 13 3.68 13 3 13 C3 13.66 3 14.32 3 15 C1.68 14.67 0.36 14.34 -1 14 C-0.67 9.38 -0.34 4.76 0 0 Z " fill="#91D4C9" transform="translate(213,195)"/>
<path d="M0 0 C0.33 0 0.66 0 1 0 C1.33 2.31 1.66 4.62 2 7 C2.99 7 3.98 7 5 7 C5 7.66 5 8.32 5 9 C4.34 9 3.68 9 3 9 C2.01 10.485 2.01 10.485 1 12 C-0.55078125 10.79296875 -0.55078125 10.79296875 -2 9 C-1.85546875 6.73828125 -1.85546875 6.73828125 -1.1875 4.3125 C-0.97480469 3.50425781 -0.76210937 2.69601563 -0.54296875 1.86328125 C-0.36378906 1.24839844 -0.18460938 0.63351563 0 0 Z " fill="#30B397" transform="translate(245,200)"/>
<path d="M0 0 C-0.99 0.495 -0.99 0.495 -2 1 C-2 1.66 -2 2.32 -2 3 C-3.98 3 -5.96 3 -8 3 C-8 1.68 -8 0.36 -8 -1 C-4.59745511 -2.2151946 -3.06748874 -1.86240388 0 0 Z " fill="#2C9C85" transform="translate(340,332)"/>
<path d="M0 0 C0.99 0.33 1.98 0.66 3 1 C3.02712066 2.43739513 3.04645067 3.87493863 3.0625 5.3125 C3.07410156 6.11300781 3.08570313 6.91351563 3.09765625 7.73828125 C3 10 3 10 2 13 C1.34 13 0.68 13 0 13 C0 8.71 0 4.42 0 0 Z " fill="#76C9B9" transform="translate(255,182)"/>
<path d="M0 0 C-1.12073862 0.83905565 -2.24674547 1.67107831 -3.375 2.5 C-4.31472656 3.19609375 -4.31472656 3.19609375 -5.2734375 3.90625 C-7 5 -7 5 -9 5 C-9.99 5.495 -9.99 5.495 -11 6 C-11.66 5.67 -12.32 5.34 -13 5 C-11.70986461 2.41972923 -10.61048055 2.16021358 -8 1 C-7.154375 0.608125 -6.30875 0.21625 -5.4375 -0.1875 C-3 -1 -3 -1 0 0 Z " fill="#2A9E84" transform="translate(342,313)"/>
<path d="M0 0 C0.66 0 1.32 0 2 0 C0.68938409 4.23429756 -0.94356259 8.07407404 -3 12 C-4.5 10.6875 -4.5 10.6875 -6 9 C-6 8.01 -6 7.02 -6 6 C-5.34 6 -4.68 6 -4 6 C-3.67 5.34 -3.34 4.68 -3 4 C-2.01 4 -1.02 4 0 4 C0 2.68 0 1.36 0 0 Z " fill="#57AF9F" transform="translate(378,300)"/>
<path d="M0 0 C5.44567686 1.02862785 10.11817117 2.24614784 15 5 C14.67 5.66 14.34 6.32 14 7 C12.02 6.34 10.04 5.68 8 5 C8 4.34 8 3.68 8 3 C6.35 3.33 4.7 3.66 3 4 C2.67 3.01 2.34 2.02 2 1 C1.34 0.67 0.68 0.34 0 0 Z " fill="#7CCFBB" transform="translate(315,212)"/>
<path d="M0 0 C1.65 0.33 3.3 0.66 5 1 C2.20803989 4.28465896 -1.23196817 6.01321958 -5 8 C-5.66 8 -6.32 8 -7 8 C-7 7.01 -7 6.02 -7 5 C-5.5459375 4.5978125 -5.5459375 4.5978125 -4.0625 4.1875 C-3.051875 3.795625 -2.04125 3.40375 -1 3 C-0.67 2.01 -0.34 1.02 0 0 Z " fill="#5DB09F" transform="translate(355,324)"/>
<path d="M0 0 C1.9375 1 1.9375 1 4 3 C4.66549451 5.69924572 4.81680763 8.20631637 5 11 C4.34 11 3.68 11 3 11 C2.67 9.35 2.34 7.7 2 6 C1.34 6 0.68 6 0 6 C-1.125 2.25 -1.125 2.25 0 0 Z " fill="#56BFA6" transform="translate(330,218)"/>
<path d="M0 0 C-0.33 0.94875 -0.66 1.8975 -1 2.875 C-2.10159191 5.77062452 -2.10159191 5.77062452 -2 8 C-2 8.66 -2 9.32 -2 10 C-2.99 10 -3.98 10 -5 10 C-4.979375 9.071875 -4.95875 8.14375 -4.9375 7.1875 C-4.84230396 3.97713989 -4.84230396 3.97713989 -6 1 C-3 0 -3 0 0 0 Z " fill="#65C8B6" transform="translate(256,198)"/>
<path d="M0 0 C0.70125 0.144375 1.4025 0.28875 2.125 0.4375 C5.07556141 1.01478375 8.03270151 1.51695141 11 2 C10.67 2.99 10.34 3.98 10 5 C8.51793505 4.745504 7.03931385 4.47088238 5.5625 4.1875 C4.73878906 4.03667969 3.91507812 3.88585937 3.06640625 3.73046875 C2.38449219 3.48941406 1.70257813 3.24835938 1 3 C0.67 2.01 0.34 1.02 0 0 Z " fill="#34BE9D" transform="translate(292,209)"/>
<path d="M0 0 C2.4375 1.125 2.4375 1.125 5 3 C5.8125 6.1875 5.8125 6.1875 6 9 C6.99 9 7.98 9 9 9 C8.67 10.65 8.34 12.3 8 14 C4.60714071 9.75892588 1.72257578 5.16772735 0 0 Z " fill="#82D2C2" transform="translate(235,175)"/>
<path d="M0 0 C0.66 0.33 1.32 0.66 2 1 C-2.625 6.875 -2.625 6.875 -6 8 C-6.33 6.35 -6.66 4.7 -7 3 C-5.68 3.33 -4.36 3.66 -3 4 C-3 3.01 -3 2.02 -3 1 C-2.01 0.67 -1.02 0.34 0 0 Z " fill="#6CCCBA" transform="translate(352,164)"/>
<path d="M0 0 C-0.99 0 -1.98 0 -3 0 C-3 0.66 -3 1.32 -3 2 C-7.53701494 3.45184478 -11.18061476 4.23509196 -16 4 C-13.41588269 2.27725513 -11.45097344 1.31104478 -8.5625 0.3125 C-7.41974609 -0.09548828 -7.41974609 -0.09548828 -6.25390625 -0.51171875 C-3.78170279 -1.04729142 -2.37016716 -0.80445309 0 0 Z " fill="#80DAC9" transform="translate(302,120)"/>
<path d="M0 0 C-0.99 1.485 -0.99 1.485 -2 3 C-5.625 3.1875 -5.625 3.1875 -9 3 C-9 2.01 -9 1.02 -9 0 C-5.93109813 -1.53445094 -3.29905734 -0.54984289 0 0 Z " fill="#239580" transform="translate(274,370)"/>
<path d="M0 0 C7.66742597 5.96583144 7.66742597 5.96583144 9 11 C7.125 10.75 7.125 10.75 5 10 C3.875 8 3.875 8 3 6 C2.34 5.67 1.68 5.34 1 5 C0.375 2.4375 0.375 2.4375 0 0 Z " fill="#72CEB8" transform="translate(210,173)"/>
<path d="M0 0 C0.33 0.99 0.66 1.98 1 3 C1.99 3.33 2.98 3.66 4 4 C4 4.66 4 5.32 4 6 C5.32 6.66 6.64 7.32 8 8 C7.67 8.66 7.34 9.32 7 10 C4.525 9.01 4.525 9.01 2 8 C2 6.68 2 5.36 2 4 C1.34 4 0.68 4 0 4 C0 2.68 0 1.36 0 0 Z " fill="#319C87" transform="translate(159,338)"/>
<path d="M0 0 C3.63 0 7.26 0 11 0 C11 0.66 11 1.32 11 2 C6.545 2.495 6.545 2.495 2 3 C1.34 2.01 0.68 1.02 0 0 Z " fill="#5ABFA9" transform="translate(281,207)"/>
<path d="M0 0 C1 3 1 3 0 6 C0.66 6.33 1.32 6.66 2 7 C-3.75 6.125 -3.75 6.125 -6 5 C-6 4.34 -6 3.68 -6 3 C-4.02 2.01 -2.04 1.02 0 0 Z " fill="#25927C" transform="translate(203,368)"/>
<path d="M0 0 C0.78375 0.185625 1.5675 0.37125 2.375 0.5625 C4.97089775 1.25962266 4.97089775 1.25962266 7 0 C6.67 1.32 6.34 2.64 6 4 C3.69 4 1.38 4 -1 4 C-1.33 3.34 -1.66 2.68 -2 2 C-1.34 2 -0.68 2 0 2 C0 1.34 0 0.68 0 0 Z " fill="#2EB296" transform="translate(353,264)"/>
<path d="M0 0 C1 3 1 3 0.25 5 C-0.98548635 6.97677816 -2.28039676 8.43672433 -4 10 C-3.38461538 3.47692308 -3.38461538 3.47692308 -1.4375 1.0625 C-0.7259375 0.5365625 -0.7259375 0.5365625 0 0 Z " fill="#55BDA5" transform="translate(138,218)"/>
<path d="M0 0 C-0.33 1.32 -0.66 2.64 -1 4 C-2.32 4.33 -3.64 4.66 -5 5 C-5.66 4.01 -6.32 3.02 -7 2 C-6 0 -6 0 -4.0625 -0.6875 C-2 -1 -2 -1 0 0 Z " fill="#34B598" transform="translate(145,218)"/>
<path d="M0 0 C0.66 0.33 1.32 0.66 2 1 C0.75 3.4375 0.75 3.4375 -1 6 C-2.32594105 6.36162029 -3.65938457 6.69728039 -5 7 C-6.28436734 8.9837767 -6.28436734 8.9837767 -7 11 C-7 8 -7 8 -6 6 C-5.34 6 -4.68 6 -4 6 C-3.71125 5.38125 -3.4225 4.7625 -3.125 4.125 C-2 2 -2 2 0 0 Z " fill="#8BD9CA" transform="translate(276,129)"/>
<path d="M0 0 C0 0.66 0 1.32 0 2 C-0.66 2 -1.32 2 -2 2 C-2 3.32 -2 4.64 -2 6 C-3.65 6 -5.3 6 -7 6 C-5.61469317 1.84407951 -4.52657396 0 0 0 Z " fill="#269A82" transform="translate(311,337)"/>
<path d="M0 0 C-0.99 0 -1.98 0 -3 0 C-3.33 0.99 -3.66 1.98 -4 3 C-7.0625 4.1875 -7.0625 4.1875 -10 5 C-10.66 4.34 -11.32 3.68 -12 3 C-10.75823305 2.29773859 -9.50614401 1.61370891 -8.25 0.9375 C-7.20585937 0.36322266 -7.20585937 0.36322266 -6.140625 -0.22265625 C-3.63859372 -1.1312406 -2.4667645 -0.88336837 0 0 Z " fill="#6BC6B0" transform="translate(151,214)"/>
<path d="M0 0 C0.66 0 1.32 0 2 0 C2 0.66 2 1.32 2 2 C2.99 2.33 3.98 2.66 5 3 C4.67 3.66 4.34 4.32 4 5 C4.66 5 5.32 5 6 5 C6.33 5.99 6.66 6.98 7 8 C6.01 8 5.02 8 4 8 C0 2.74285714 0 2.74285714 0 0 Z " fill="#69CBB7" transform="translate(193,168)"/>
<path d="M0 0 C0.66 0 1.32 0 2 0 C3.99785435 4.1205746 4.17835515 7.45194365 4 12 C0.46209597 8.30827405 0.40884117 4.90609405 0 0 Z " fill="#7ED0BF" transform="translate(265,150)"/>
<path d="M0 0 C3.25543229 0.34879632 4.01873107 1.02133261 6.25 3.5625 C6.8275 4.366875 7.405 5.17125 8 6 C5.6875 5.8125 5.6875 5.8125 3 5 C1.1875 2.4375 1.1875 2.4375 0 0 Z " fill="#65CCB5" transform="translate(235,153)"/>
<path d="M0 0 C0.96661363 3.12180401 0.98988909 5.52083795 0.5625 8.75 C0.46066406 9.54921875 0.35882813 10.3484375 0.25390625 11.171875 C0.12822266 12.07679688 0.12822266 12.07679688 0 13 C-0.33 13 -0.66 13 -1 13 C-1.33 10.36 -1.66 7.72 -2 5 C-2.99 5.495 -2.99 5.495 -4 6 C-2.84826645 3.53199953 -1.95216435 1.95216435 0 0 Z " fill="#A0E3D6" transform="translate(198,143)"/>
<path d="M0 0 C1.9453125 -0.29296875 1.9453125 -0.29296875 4.125 -0.1875 C5.40375 -0.125625 6.6825 -0.06375 8 0 C5.73814546 2.26185454 4.03016439 3.03921617 1 4 C0.01 3.67 -0.98 3.34 -2 3 C-1.34 2.01 -0.68 1.02 0 0 Z " fill="#68B5A7" transform="translate(273,371)"/>
<path d="M0 0 C0.33 0 0.66 0 1 0 C1.0272415 1.41655793 1.04650467 2.83327045 1.0625 4.25 C1.07410156 5.03890625 1.08570313 5.8278125 1.09765625 6.640625 C1.00385306 8.90691002 0.63241063 10.8288895 0 13 C-0.66 13 -1.32 13 -2 13 C-1.39174965 8.65535464 -0.73832608 4.32448133 0 0 Z " fill="#5BB19B" transform="translate(329,288)"/>
<path d="M0 0 C1.98 0.495 1.98 0.495 4 1 C3.34 2.65 2.68 4.3 2 6 C1.01 6 0.02 6 -1 6 C-0.67 4.02 -0.34 2.04 0 0 Z " fill="#55C1AB" transform="translate(216,198)"/>
<path d="M0 0 C-0.33 0.66 -0.66 1.32 -1 2 C-4.3 2 -7.6 2 -11 2 C-11 1.34 -11 0.68 -11 0 C-7.01803543 -1.05404945 -4.01804691 -0.84098656 0 0 Z " fill="#33BB9D" transform="translate(304,217)"/>
<path d="M0 0 C0.66 0.33 1.32 0.66 2 1 C2 1.66 2 2.32 2 3 C-3 2 -3 2 -8 1 C-4.92477747 -0.86709939 -3.39885889 -1.24624826 0 0 Z " fill="#4EBCA2" transform="translate(315,212)"/>
<path d="M0 0 C0 0.33 0 0.66 0 1 C-3.3 1.33 -6.6 1.66 -10 2 C-10 1.34 -10 0.68 -10 0 C-6.22996568 -2.61002376 -4.07631429 -1.66758312 0 0 Z " fill="#41B99F" transform="translate(300,178)"/>
<path d="M0 0 C-0.99 3.3 -1.98 6.6 -3 10 C-3.33 10 -3.66 10 -4 10 C-4.6875 6.6875 -4.6875 6.6875 -5 3 C-3.42599605 0.67647035 -2.82844233 0 0 0 Z " fill="#91D3C3" transform="translate(227,108)"/>
<path d="M0 0 C1.32 0.33 2.64 0.66 4 1 C4 2.65 4 4.3 4 6 C4.66 6 5.32 6 6 6 C5.67 6.99 5.34 7.98 5 9 C4.16396622 7.68921847 3.3312426 6.37632511 2.5 5.0625 C2.0359375 4.33160156 1.571875 3.60070312 1.09375 2.84765625 C0 1 0 1 0 0 Z " fill="#6FB5AB" transform="translate(155,336)"/>
<path d="M0 0 C0.66 0 1.32 0 2 0 C1.67 1.98 1.34 3.96 1 6 C-0.32 5.67 -1.64 5.34 -3 5 C-1.625 2.5 -1.625 2.5 0 0 Z " fill="#30A187" transform="translate(362,289)"/>
<path d="M0 0 C0.66 0 1.32 0 2 0 C2.33 3.63 2.66 7.26 3 11 C2.01 11.66 1.02 12.32 0 13 C0 8.71 0 4.42 0 0 Z " fill="#6CBFAE" transform="translate(360,278)"/>
<path d="M0 0 C0.99 0.33 1.98 0.66 3 1 C0.03 3.475 0.03 3.475 -3 6 C-3.66 5.67 -4.32 5.34 -5 5 C-5 4.34 -5 3.68 -5 3 C-3.68 3 -2.36 3 -1 3 C-0.67 2.01 -0.34 1.02 0 0 Z " fill="#5DB1A0" transform="translate(364,319)"/>
<path d="M0 0 C2.5722047 1.28610235 3.00974907 2.33393981 4 5 C3.625 7.25 3.625 7.25 3 9 C0.70620251 5.55930376 0 4.27709699 0 0 Z " fill="#78CBBB" transform="translate(252,171)"/>
<path d="M0 0 C0.6875 1.6875 0.6875 1.6875 1 4 C-0.3125 6.75 -0.3125 6.75 -2 9 C-2.66 9 -3.32 9 -4 9 C-2.94124926 5.59687262 -1.99097846 2.98646769 0 0 Z " fill="#80D6C6" transform="translate(218,116)"/>
<path d="M0 0 C2.97 0 5.94 0 9 0 C6.4345406 2.5654594 4.52313332 2.54046087 1 3 C0.67 2.01 0.34 1.02 0 0 Z " fill="#3B897C" transform="translate(264,373)"/>
<path d="M0 0 C3.91402949 1.26941497 5.79072873 2.51167694 8 6 C5.6875 5.8125 5.6875 5.8125 3 5 C1.1875 2.4375 1.1875 2.4375 0 0 Z " fill="#7AC8B4" transform="translate(365,252)"/>
<path d="M0 0 C0.66 0 1.32 0 2 0 C1.5020163 3.73487777 1.12508244 5.81237635 -1 9 C-2.0326802 6.21176345 -2.04509293 5.1322726 -1.0625 2.25 C-0.711875 1.5075 -0.36125 0.765 0 0 Z " fill="#70C7B6" transform="translate(239,205)"/>
<path d="M0 0 C0.99 0 1.98 0 3 0 C3.33 2.97 3.66 5.94 4 9 C3.01 9.33 2.02 9.66 1 10 C1.33 7.03 1.66 4.06 2 1 C1.34 0.67 0.68 0.34 0 0 Z " fill="#6BCAB5" transform="translate(277,171)"/>
</svg>
